<?xml version="1.0"?>
<svg xmlns="http://www.w3.org/2000/svg" xmlns:xlink="http://www.w3.org/1999/xlink" xmlns:svgjs="http://svgjs.com/svgjs" version="1.1" width="512" height="512" x="0" y="0" viewBox="0 0 512.068 512.068" style="enable-background:new 0 0 512 512" xml:space="preserve" class=""><g><path xmlns="http://www.w3.org/2000/svg" d="m212.769 331v-134.265c-82.935 0-150.167 67.232-150.167 150.167s67.232 150.166 150.167 150.166 150.167-67.232 150.167-150.166l-15.903-15.902z" fill="#3c4fb6" data-original="#8fd4ff" class=""/><path xmlns="http://www.w3.org/2000/svg" d="m212.769 331-.09 166.068c.03 0 .06.001.09.001 82.935 0 150.167-67.232 150.167-150.166l-15.903-15.903z" fill="#3c4fb6" data-original="#37a8e5" class=""/><path xmlns="http://www.w3.org/2000/svg" d="m212.769 512.068c-91.073 0-165.167-74.093-165.167-165.166s74.094-165.167 165.167-165.167c8.284 0 15 6.716 15 15s-6.716 15-15 15c-74.531 0-135.167 60.636-135.167 135.167s60.636 135.166 135.167 135.166 135.167-60.635 135.167-135.166c0-8.284 6.716-15 15-15s15 6.716 15 15c0 91.074-74.094 165.166-165.167 165.166z" fill="#3c4fb6" data-original="#1a82c7" class=""/><path xmlns="http://www.w3.org/2000/svg" d="m362.936 331.902c-8.284 0-15 6.716-15 15 0 74.531-60.636 135.166-135.167 135.166-.03 0-.06-.001-.09-.001v30c.03 0 .06.001.09.001 91.073 0 165.167-74.093 165.167-165.166 0-8.284-6.716-15-15-15z" fill="#3c4fb6" data-original="#006099" class=""/><path xmlns="http://www.w3.org/2000/svg" d="m455.68 412.583-108.375-108.375h-105.469v-60.754h106.285c16.568 0 30-13.431 30-30 0-16.568-13.432-30-30-30h-106.285v-28.622c0-16.347-12.817-30.165-29.157-30.613-16.954-.465-30.843 13.14-30.843 29.989v190c0 11.046 8.954 20 20 20h120.616l90.802 90.802c11.716 11.715 30.711 11.715 42.426 0 11.715-11.716 11.715-30.711 0-42.427z" fill="#3c4fb6" data-original="#006099" class=""/><path xmlns="http://www.w3.org/2000/svg" d="m322.452 364.207 90.801 90.802c11.716 11.715 30.711 11.715 42.426 0 11.716-11.716 11.716-30.711 0-42.427l-108.374-108.375h-105.469v-60.754h106.285c16.568 0 30-13.431 30-30 0-16.568-13.432-30-30-30h-106.285v-28.622c0-16.347-12.817-30.165-29.157-30.613v239.988h109.773z" fill="#606fc4" data-original="#00213b" class=""/><ellipse xmlns="http://www.w3.org/2000/svg" cx="213.539" cy="47.466" fill="#3c4fb6" rx="47.466" ry="47.466" transform="matrix(.23 -.973 .973 .23 118.282 244.387)" data-original="#006099" class=""/><path xmlns="http://www.w3.org/2000/svg" d="m213.539 0c-.289 0-.573.017-.86.022v94.888c.287.005.571.021.86.021 26.214 0 47.466-21.251 47.466-47.466s-21.252-47.465-47.466-47.465z" fill="#606fc4" data-original="#00213b" class=""/></g></svg>
